HIERARCHY
ROOT Hips
{
	OFFSET -0.179506 -22.333345 2.821913
	CHANNELS 6 Xposition Yposition Zposition Zrotation Yrotation Xrotation 
	JOINT LeftUpLeg
	{
		OFFSET 6.951974 -9.140623 -0.681533
		CHANNELS 3 Zrotation Yrotation Xrotation
		JOINT LeftLeg
		{
			OFFSET 3.427654 -37.519855 -0.449580
			CHANNELS 3 Zrotation Yrotation Xrotation
			JOINT LeftFoot
			{
				OFFSET -1.359570 -39.796059 -4.369333
				CHANNELS 3 Zrotation Yrotation Xrotation
				JOINT LeftToe
				{
					OFFSET 2.635814 -5.579078 11.928840
					CHANNELS 3 Zrotation Yrotation Xrotation
					End Site
					{
						OFFSET 0.000000 0.000000 0.000000
					}
				}
			}
		}
	}
	JOINT RightUpLeg
	{
		OFFSET -6.767048 -9.052170 -0.431982
		CHANNELS 3 Zrotation Yrotation Xrotation
		JOINT RightLeg
		{
			OFFSET -3.829005 -38.256897 -0.885003
			CHANNELS 3 Zrotation Yrotation Xrotation
			JOINT RightFoot
			{
				OFFSET 1.577377 -39.841461 -4.231180
				CHANNELS 3 Zrotation Yrotation Xrotation
				JOINT RightToe
				{
					OFFSET -2.537174 -4.814398 12.334795
					CHANNELS 3 Zrotation Yrotation Xrotation
					End Site
					{
						OFFSET 0.000000 0.000000 0.000000
					}
				}
			}
		}
	}
	JOINT Spine
	{
		OFFSET -0.253288 10.896323 -2.669631
		CHANNELS 3 Zrotation Yrotation Xrotation
		JOINT Spine1
		{
			OFFSET 0.548704 13.518043 0.109247
			CHANNELS 3 Zrotation Yrotation Xrotation
			JOINT Spine2
			{
				OFFSET 0.145701 5.292222 2.542457
				CHANNELS 3 Zrotation Yrotation Xrotation
				JOINT Neck
				{
					OFFSET -0.277840 21.387037 -4.285703
					CHANNELS 3 Zrotation Yrotation Xrotation
					JOINT Head
					{
						OFFSET 0.515184 6.496960 5.134897
						CHANNELS 3 Zrotation Yrotation Xrotation
						End Site
						{
							OFFSET 0.000000 0.000000 0.000000
						}
					}
				}
				JOINT LeftShoulder
				{
					OFFSET 7.884473 12.174932 -3.408961
					CHANNELS 3 Zrotation Yrotation Xrotation
					JOINT LeftArm
					{
						OFFSET 9.097692 3.046888 -0.886815
						CHANNELS 3 Zrotation Yrotation Xrotation
						JOINT LeftForeArm
						{
							OFFSET 25.961220 -1.277207 -2.745643
							CHANNELS 3 Zrotation Yrotation Xrotation
							JOINT LeftHand
							{
								OFFSET 24.923361 0.898606 -0.117091
								CHANNELS 3 Zrotation Yrotation Xrotation
								End Site
								{
									OFFSET 0.000000 0.000000 0.000000
								}
							}
						}
					}
				}
				JOINT RightShoulder
				{
					OFFSET -8.175920 11.883285 -3.861528
					CHANNELS 3 Zrotation Yrotation Xrotation
					JOINT RightArm
					{
						OFFSET -9.601238 3.255117 -0.914307
						CHANNELS 3 Zrotation Yrotation Xrotation
						JOINT RightForeArm
						{
							OFFSET -25.374195 -1.332924 -2.140099
							CHANNELS 3 Zrotation Yrotation Xrotation
							JOINT RightHand
							{
								OFFSET -25.529810 0.777228 -0.555919
								CHANNELS 3 Zrotation Yrotation Xrotation
								End Site
								{
									OFFSET 0.000000 0.000000 0.000000
								}
							}
						}
					}
				}
			}
		}
	}
}
MOTION
Frames: 10
Frame Time: 0.033333
-99.105949 68.850899 88.806725 129.018984 2.068676 92.297756 18.476755 6.041941 -16.294285 -3.154802 17.864919 30.927155 -2.608720 1.493908 -21.492418 nan nan nan -20.337032 -7.525963 -3.778991 1.739408 -12.274554 14.616546 7.815548 8.561932 -14.481588 nan nan nan -4.026914 6.225725 6.287071 -0.803628 0.406016 9.575214 -0.055693 1.803611 -2.927987 -3.789982 13.731030 13.793433 -9.671596 6.330240 26.783261 -8.333566 -6.584129 0.563480 -50.363725 -22.802099 -3.653120 151.100569 -38.424553 -109.024290 9.259980 -22.901069 -8.703835 11.403484 23.781250 0.021649 74.828680 38.038579 32.829016 -162.015795 64.703978 -135.544791 -9.012610 13.341912 -29.268843 
-98.936974 68.552742 88.808922 129.062984 1.839825 92.197988 18.373058 5.881757 -16.016029 -3.159511 17.809377 30.364774 -2.694112 1.599603 -21.199760 nan nan nan -20.355957 -7.487690 -3.838385 1.719215 -12.583461 14.968519 7.665978 8.605969 -14.752351 nan nan nan -4.026181 6.218202 5.968622 -0.841850 0.419348 10.055320 -0.144508 1.791305 -2.968466 -3.718801 13.783462 13.877025 -9.771396 6.359539 26.640328 -8.418213 -6.867456 0.623771 -50.163229 -22.709134 -3.717306 150.788795 -38.178851 -108.803831 9.579239 -22.908374 -8.343639 11.342014 23.910094 -0.076431 74.785897 38.091628 32.640392 -161.807591 64.740452 -135.354048 -8.309011 13.683646 -29.031734 
-98.728355 68.246849 88.842819 129.126993 1.724182 92.162499 18.287163 6.055049 -15.850339 -3.031963 17.537723 29.942021 -2.809140 1.604422 -20.880416 nan nan nan -20.120198 -7.618215 -3.941442 1.545167 -12.872153 15.349992 7.546436 8.564564 -15.074574 nan nan nan -3.942867 6.064926 6.860902 -1.024355 0.567817 8.644792 -0.085438 1.731790 -3.059240 -3.812273 13.731308 13.997738 -9.558374 6.749540 27.152326 -8.410081 -6.296353 0.596657 -50.370878 -22.548291 -3.702085 150.868745 -38.502608 -108.946841 9.859696 -22.990984 -8.752903 11.241741 23.498364 -0.135260 75.470835 37.757498 32.976716 -162.400782 64.939977 -136.090258 -8.319893 13.962654 -29.227179 
-98.514732 67.888214 88.842987 129.240056 1.581269 92.031498 18.281142 6.090638 -15.615664 -3.021810 17.249225 29.474805 -2.969873 1.747857 -20.506602 nan nan nan -19.943500 -7.703544 -3.827377 1.489944 -13.191654 15.530507 7.217665 8.424146 -15.474247 nan nan nan -3.839309 5.963025 6.833734 -1.169918 0.548805 8.664786 -0.190085 1.816171 -2.882167 -3.789681 13.857068 13.937837 -9.382028 6.702972 27.101406 -8.256488 -6.306469 0.532345 -50.305254 -22.599764 -3.903812 150.660211 -38.586611 -108.720566 9.825901 -23.020212 -8.981647 11.073471 23.495920 -0.108282 75.477076 38.045961 32.811769 -162.487658 65.029389 -136.090503 -8.895967 13.807498 -29.416889 
-98.295403 67.535019 88.854317 129.389242 1.448433 91.960032 18.300396 6.021354 -15.410715 -2.964412 17.108350 28.927168 -3.228410 1.819092 -20.074823 nan nan nan -19.724293 -7.716781 -3.741198 1.381831 -13.644656 15.573033 6.840702 8.372852 -16.021819 nan nan nan -3.901851 6.006140 6.363952 -1.124493 0.495779 9.271985 -0.172158 1.831445 -2.853350 -3.543270 13.955890 14.143493 -9.469741 6.635129 26.753276 -8.509504 -6.631362 0.517846 -50.152960 -22.670472 -3.999126 150.442616 -38.441826 -108.427339 9.330317 -23.054797 -8.867883 11.020479 23.554957 -0.213166 75.186756 38.161778 32.621720 -162.296572 65.076421 -135.873751 -9.353086 13.700141 -29.505070 
-98.057442 67.179932 88.893623 129.487311 1.299494 91.844989 18.300377 6.034491 -15.109274 -2.842753 17.000819 28.348527 -3.569426 1.775834 -19.592178 nan nan nan -19.515402 -7.796698 -3.721139 1.182459 -13.973899 15.778446 6.533060 8.430045 -16.520788 nan nan nan -3.903990 5.874231 6.382539 -1.227328 0.402821 9.367429 -0.214350 1.924705 -2.974115 -3.410445 14.021048 14.283086 -9.462027 6.703408 26.701956 -8.692850 -6.612381 0.378125 -50.116547 -22.518046 -4.015366 150.349370 -38.395062 -108.331008 9.154388 -23.072640 -8.755443 11.059330 23.625584 -0.272619 75.233096 38.132709 32.586479 -162.282728 65.210304 -135.940187 -9.237060 13.881656 -29.455350 
-97.794373 66.786316 88.935509 129.571112 1.178732 91.745575 18.361140 6.140496 -14.782391 -2.796350 16.826880 27.709676 -3.837016 1.697995 -19.055010 nan nan nan -19.325932 -7.943173 -3.757424 1.025473 -14.258368 16.083023 6.293734 8.554444 -16.769813 nan nan nan -3.829754 5.698444 6.398019 -1.365076 0.370418 9.344724 -0.324371 2.041737 -2.940366 -3.412765 14.113498 14.365661 -9.332049 6.709862 26.674574 -8.615031 -6.558009 0.204495 -50.225175 -22.327292 -4.010334 150.181738 -38.385013 -108.266262 9.262534 -23.049810 -9.067409 10.922239 23.746326 -0.302476 75.338201 38.201755 32.460690 -162.259226 65.337230 -135.889063 -9.352785 13.937544 -29.334356 
-97.513161 66.386063 89.003777 129.709901 1.129261 91.605656 18.446444 6.388941 -14.413619 -2.767410 16.469750 27.028924 -4.080614 1.607607 -18.448946 nan nan nan -19.070640 -8.122777 -3.612693 0.935160 -14.401053 16.181529 6.255978 8.692018 -16.840893 nan nan nan -3.785530 5.646117 6.807788 -1.441354 0.498020 8.766324 -0.213314 1.971762 -2.853207 -3.550684 14.072833 14.550963 -9.064958 6.892060 26.691035 -8.625311 -6.542844 0.168191 -50.423906 -22.082299 -4.000078 150.264283 -38.544132 -108.212914 9.588136 -22.796198 -8.682622 10.563373 23.729776 -0.463879 75.452649 37.994979 32.305157 -162.488513 65.345554 -136.148924 -9.863561 13.805151 -29.094014 
-97.253235 65.976036 89.073845 129.887098 1.006451 91.356720 18.511044 6.338006 -13.922989 -2.769120 16.304252 26.260419 -4.396843 1.638038 -17.821194 nan nan nan -19.008180 -8.191218 -3.276520 1.019332 -14.551826 16.145957 6.184874 8.847807 -16.921939 nan nan nan -3.725571 5.596633 6.644975 -1.522125 0.377265 9.606278 -0.316113 2.086494 -3.183457 -3.376482 14.299622 14.560054 -9.028319 6.716653 26.776532 -8.688516 -6.865929 0.168123 -50.274436 -21.887272 -4.136566 149.996266 -38.432603 -107.848228 9.410846 -22.826363 -8.505715 10.428566 23.857707 -0.714652 75.431070 37.913341 32.151509 -162.362721 65.398936 -135.883593 -9.990670 13.562134 -29.231897 
-96.985268 65.584808 89.174171 130.121252 0.928100 91.195385 18.566420 6.305288 -13.556389 -2.677510 16.090956 25.525650 -4.691160 1.590770 -17.186603 nan nan nan -18.875126 -8.299935 -2.954772 1.169966 -14.423312 15.988810 6.219882 8.885030 -16.892377 nan nan nan -3.736149 5.597244 6.906767 -1.581020 0.406567 9.336493 -0.269102 2.005870 -3.404656 -3.516021 14.274582 14.783374 -8.886075 7.073558 27.123215 -8.909833 -6.924473 0.625824 -50.153083 -21.865928 -4.457296 149.910324 -38.536072 -107.571470 9.082354 -23.005827 -8.873158 10.488840 23.583877 -0.587362 75.672552 37.814958 31.971794 -162.537309 65.674423 -135.965264 -9.089243 13.754637 -29.891130 
